<?xml version="1.0" encoding="UTF-8" standalone="no"?>
<!-- Created with Inkscape (http://www.inkscape.org/) -->

<svg
   width="160"
   height="160"
   viewBox="0 0 42.333333 42.333333"
   version="1.1"
   id="svg1"
   inkscape:version="1.4.2 (2aeb623e1d, 2025-05-12)"
   sodipodi:docname="dialog.svg"
   xmlns:inkscape="http://www.inkscape.org/namespaces/inkscape"
   xmlns:sodipodi="http://sodipodi.sourceforge.net/DTD/sodipodi-0.dtd"
   xmlns="http://www.w3.org/2000/svg"
   xmlns:svg="http://www.w3.org/2000/svg">
  <sodipodi:namedview
     id="namedview1"
     pagecolor="#ffffff"
     bordercolor="#666666"
     borderopacity="1.0"
     inkscape:showpageshadow="2"
     inkscape:pageopacity="0.0"
     inkscape:pagecheckerboard="0"
     inkscape:deskcolor="#d1d1d1"
     inkscape:document-units="mm"
     inkscape:zoom="4.0438104"
     inkscape:cx="49.581949"
     inkscape:cy="102.87327"
     inkscape:window-width="1854"
     inkscape:window-height="1131"
     inkscape:window-x="0"
     inkscape:window-y="0"
     inkscape:window-maximized="1"
     inkscape:current-layer="layer1" />
  <defs
     id="defs1" />
  <g
     inkscape:label="Layer 1"
     inkscape:groupmode="layer"
     id="layer1">
    <path
       style="fill:#b2dd5a;fill-opacity:1;stroke:none;stroke-width:0.27563px;stroke-linecap:butt;stroke-linejoin:miter;stroke-opacity:1"
       d="M 0.83093,0.362377 2.32661,1.630631 0.58165,3.261242 0.16618,12.682551 1.99424,13.497857 0,15.943774 l 0.41546,10.146023 1.2464,1.35884 -1.57877,0.54354 0.16619,9.14955 v 4.64809 h 8.20725 l 2.82518,-1.99297 0.74784,2.08356 6.64747,0.36236 0.91403,-0.9059 1.49569,0.63413 3.24064,-0.0906 2.07734,-2.6271 0.0831,2.89887 6.89676,-0.0906 0.99712,-3.62358 1.16331,2.71768 4.48705,1.17767 h 1.88581 l -1.3295,-3.08005 1.66188,-2.26474 -0.49856,-8.69659 -1.66188,-1.44943 2.24353,-1.17766 -0.0831,-10.417797 -1.16331,-0.724718 0.91402,-0.996485 -0.49856,-7.518929 -1.1633,-1.268252 1.32949,-2.174148 V 0.090589 H 39.71867 L 36.8935,2.445916 35.97947,0 29.2489,0.09059 28.66724,0.362358 26.673,0.09059 23.59854,0.18118 22.10286,2.717686 21.27193,0.724717 17.03416,0.362358 15.2061,0.634127 13.29495,3.351813 12.13164,0.362358 Z"
       id="path1"
       sodipodi:nodetypes="ccccccccccccccccccccccccccccccccccccccccccccccccccc" />
  </g>
</svg>
