<?xml version="1.0" encoding="UTF-8" standalone="no"?>
<!-- Created with Inkscape (http://www.inkscape.org/) -->

<svg
   version="1.1"
   id="svg1"
   width="94pt"
   height="47pt"
   viewBox="0 0 125.33333 62.66667"
   sodipodi:docname="gridsquid-h.svg"
   inkscape:version="1.4.2 (2aeb623e1d, 2025-05-12)"
   xmlns:inkscape="http://www.inkscape.org/namespaces/inkscape"
   xmlns:sodipodi="http://sodipodi.sourceforge.net/DTD/sodipodi-0.dtd"
   xmlns:xlink="http://www.w3.org/1999/xlink"
   xmlns="http://www.w3.org/2000/svg"
   xmlns:svg="http://www.w3.org/2000/svg">
  <defs
     id="defs1">
    <linearGradient
       id="linearGradient6"
       inkscape:collect="always">
      <stop
         style="stop-color:#bcdeeb;stop-opacity:1;"
         offset="0"
         id="stop6" />
      <stop
         style="stop-color:#69bbcd;stop-opacity:1;"
         offset="1"
         id="stop7" />
    </linearGradient>
    <linearGradient
       inkscape:collect="always"
       xlink:href="#linearGradient6"
       id="linearGradient7"
       x1="51.341908"
       y1="31.624022"
       x2="51.341908"
       y2="93.448273"
       gradientUnits="userSpaceOnUse"
       gradientTransform="rotate(90,72.780201,52.350427)" />
  </defs>
  <sodipodi:namedview
     id="namedview1"
     pagecolor="#ffffff"
     bordercolor="#666666"
     borderopacity="1.0"
     inkscape:showpageshadow="2"
     inkscape:pageopacity="0.0"
     inkscape:pagecheckerboard="0"
     inkscape:deskcolor="#d1d1d1"
     showgrid="false"
     inkscape:zoom="2.7822803"
     inkscape:cx="-23.72155"
     inkscape:cy="93.089113"
     inkscape:window-width="1854"
     inkscape:window-height="1011"
     inkscape:window-x="0"
     inkscape:window-y="0"
     inkscape:window-maximized="1"
     inkscape:current-layer="layer1"
     inkscape:document-units="pt" />
  <g
     inkscape:groupmode="layer"
     id="layer1"
     inkscape:label="Image 1"
     style="display:inline">
    <path
       style="fill:url(#linearGradient7);fill-opacity:1;stroke:#678e99;stroke-width:1px;stroke-linecap:butt;stroke-linejoin:miter;stroke-opacity:1"
       d="M 124.68136,30.390272 C 123.28673,24.50024 104.64383,8.3759539 104.28442,8.3759539 c -0.35942,0 -3.9536,7.4579111 -4.402867,7.0086391 -0.449272,-0.449272 -13.568008,-0.539126 -13.568008,-0.539126 0,0 9.445344,-10.0148341 8.715873,-12.9390271 -1.118344,-4.483047 -10.782524,3.234757 -17.072329,2.695631 -6.289805,-0.539126 -27.675143,-4.94199001 -31.089608,2.965194 -2.027611,4.6955201 -0.08985,8.1767461 -1.886942,8.1767461 -1.797087,0 -38.4576606,8.356455 -37.7388306,8.536164 0.71884,0.179709 1.16811,2.336213 0.62898,2.605776 -0.53913,0.269563 -7.54777,3.594175 -7.36806,4.043446 0.17971,0.449272 6.73908,5.211553 6.73908,5.211553 0,0 0.89854,1.257961 -0.0898,1.43767 -0.9884,0.179709 3.7738796,3.234757 3.7738796,3.234757 0,0 33.60553,5.211553 32.886695,6.199951 -0.718835,0.988398 3.605546,10.8934 10.243397,11.321649 8.356455,0.539126 18.779561,-2.875339 23.811405,-2.426068 5.031844,0.449272 11.750703,6.593671 15.634658,5.211553 4.858803,-1.72902 -2.723127,-13.695206 -5.930387,-14.196988 0,0 12.130338,-3.414466 12.489754,-2.336214 0.35942,1.078252 2.24636,7.817329 3.95359,7.727475 1.70719,-0.08985 19.90458,-16.034432 20.66646,-21.924463 z"
       id="path1"
       sodipodi:nodetypes="csscssssssscscsssscssc" />
    <path
       style="fill:none;stroke:#78a8b5;stroke-width:1px;stroke-linecap:butt;stroke-linejoin:miter;stroke-opacity:1"
       d="m 54.505101,13.138234 c 5.121699,-3.5941735 8.44631,-0.718835 11.141941,0.988398 2.695631,1.707233 19.588251,1.617379 20.576649,0.359418"
       id="path2"
       sodipodi:nodetypes="csc" />
    <path
       style="fill:none;stroke:#668e99;stroke-width:1px;stroke-linecap:butt;stroke-linejoin:miter;stroke-opacity:1"
       d="m 54.145684,47.552454 c 2.246359,1.886941 9.165144,3.953592 11.14194,1.257961 1.976796,-2.695631 22.194027,-2.426067 23.272279,-1.617378"
       id="path3"
       sodipodi:nodetypes="csc" />
    <path
       style="fill:none;stroke:#668e99;stroke-width:1px;stroke-linecap:butt;stroke-linejoin:miter;stroke-opacity:1"
       d="m 21.618408,27.155514 c 0,0 -12.1303396,-1.168106 -13.2984496,-0.449271"
       id="path4" />
    <path
       style="fill:none;stroke:#668e99;stroke-width:1px;stroke-linecap:butt;stroke-linejoin:miter;stroke-opacity:1"
       d="M 21.977828,34.972844 C 20.450298,36.230805 9.2185084,37.398911 7.9605484,36.769931"
       id="path5" />
  </g>
  <g
     inkscape:groupmode="layer"
     id="layer2"
     inkscape:label="eyes"
     style="display:inline">
    <path
       id="path6-3"
       style="fill:#668e99;fill-opacity:1;stroke:none;stroke-width:1px;stroke-linecap:butt;stroke-linejoin:miter;stroke-opacity:1"
       d="m 63.220472,42.896398 c 0.04623,-2.412003 -4.761634,-5.121088 -5.480469,-5.210938 -0.718835,-0.08986 -1.167985,4.492093 -1.078125,5.300782 0.08985,0.808689 0.275342,3.344722 2.785156,3.595703 1.797087,0.179708 3.727208,-1.273544 3.773438,-3.685547 z m -0.0918,0.111328 a 2.7165158,2.7165158 0 0 1 -2.714844,2.716797 2.7165158,2.7165158 0 0 1 -2.716797,-2.716797 2.7165158,2.7165158 0 0 1 2.716797,-2.716797 2.7165158,2.7165158 0 0 1 2.714844,2.716797 z" />
    <path
       id="path6-3-3"
       style="display:inline;fill:#668e99;fill-opacity:1;stroke:none;stroke-width:1px;stroke-linecap:butt;stroke-linejoin:miter;stroke-opacity:1"
       d="m 63.220297,18.27072 c 0.04623,2.412003 -4.761634,5.121088 -5.480469,5.210938 -0.718835,0.08986 -1.167985,-4.492093 -1.078125,-5.300782 0.08985,-0.808689 0.275342,-3.344722 2.785156,-3.595703 1.797087,-0.179708 3.727208,1.273544 3.773438,3.685547 z m -0.0918,-0.111328 a 2.7165158,2.7165158 0 0 0 -2.714844,-2.716797 2.7165158,2.7165158 0 0 0 -2.716797,2.716797 2.7165158,2.7165158 0 0 0 2.716797,2.716797 2.7165158,2.7165158 0 0 0 2.714844,-2.716797 z" />
  </g>
</svg>
