<?xml version="1.0" encoding="UTF-8" standalone="no"?>
<!-- Created with Inkscape (http://www.inkscape.org/) -->

<svg
   version="1.1"
   id="svg1"
   width="78"
   height="78"
   viewBox="0 0 78 78"
   sodipodi:docname="squid.svg"
   inkscape:version="1.4.2 (2aeb623e1d, 2025-05-12)"
   xmlns:inkscape="http://www.inkscape.org/namespaces/inkscape"
   xmlns:sodipodi="http://sodipodi.sourceforge.net/DTD/sodipodi-0.dtd"
   xmlns="http://www.w3.org/2000/svg"
   xmlns:svg="http://www.w3.org/2000/svg">
  <defs
     id="defs1" />
  <sodipodi:namedview
     id="namedview1"
     pagecolor="#ffffff"
     bordercolor="#666666"
     borderopacity="1.0"
     inkscape:showpageshadow="2"
     inkscape:pageopacity="0.0"
     inkscape:pagecheckerboard="0"
     inkscape:deskcolor="#d1d1d1"
     showgrid="false"
     inkscape:zoom="7.7017306"
     inkscape:cx="35.381658"
     inkscape:cy="46.093536"
     inkscape:window-width="1854"
     inkscape:window-height="1011"
     inkscape:window-x="0"
     inkscape:window-y="0"
     inkscape:window-maximized="1"
     inkscape:current-layer="layer4" />
  <g
     inkscape:groupmode="layer"
     id="layer3"
     inkscape:label="BlueBody"
     style="display:inline">
    <path
       style="display:inline;fill:none;stroke:#000000;stroke-width:8;stroke-linecap:square;stroke-linejoin:round;stroke-dasharray:none;stroke-opacity:1"
       d="m 39.809781,6.1726342 c 0,0 -19.739455,15.2406948 -19.739455,18.1786608 0,2.937965 8.354839,8.263027 8.446651,7.16129 0.09181,-1.101737 2.387096,6.334988 0.275434,6.243176 -2.111663,-0.09181 -5.600496,0.459057 -5.692308,2.295285 -0.09181,1.836229 4.682382,0 4.131514,2.478909 -0.550869,2.478908 -0.674896,7.344913 -1.836229,7.344913 -2.295284,-10e-7 -4.498759,2.570719 -4.406947,5.600496 0.09181,3.029777 -7.987593,1.744417 -7.161291,-1.28536 0.826303,-3.029776 8.171216,-7.620347 8.171216,-11.935484 0,-4.315136 -5.404784,-4.64123 -6.51861,-4.131513 -5.416874,2.478908 -0.09181,5.23325 -0.09181,5.23325 0.94794,1.89585 -6.6104218,5.875931 -6.9776675,11.200993 -0.3672456,5.325062 9.6401985,8.44665 13.7717125,8.354839 -2.019851,1.560795 -5.692308,4.131513 -5.141439,4.682382 0.550868,0.550868 5.441212,2.65201 10.925558,-3.85608 -0.734491,2.387097 -2.203474,6.059554 -1.28536,6.334988 3.856079,-0.367246 6.151365,-5.692308 7.253102,-6.243176 0.826303,1.836228 0.826303,5.416874 2.478908,6.151365 2.478908,-0.459058 2.019851,-4.039703 2.754343,-4.223325 0.734491,-0.183623 2.099111,4.578379 4.315136,4.315136 1.756969,-0.446865 0.275434,-5.416873 1.468983,-5.416873 1.193548,0 2.387097,6.610422 6.334987,5.87593 2.387097,-0.183623 -1.744417,-7.436725 -0.918114,-6.885856 0.826303,0.550868 8.44665,7.80397 11.568238,5.416873 1.836228,-1.836228 -7.712158,-4.59057 -5.325062,-5.87593 2.387097,-1.28536 13.496278,-0.09181 13.58809,-8.813896 0.07444,-7.071472 -6.794045,-7.895782 -6.518611,-10.558313 0.275435,-2.662531 2.295286,-1.009925 2.203474,-2.937965 -0.09181,-1.928039 -1.560794,-2.478908 -3.305211,-2.295285 -1.744417,0.183623 -5.508685,1.744417 -5.23325,4.406948 0.275434,2.662531 8.722084,6.243176 7.987593,9.548387 -0.734492,3.305211 -6.059554,3.672456 -6.702233,2.846154 -0.64268,-0.826303 -0.09181,-4.957817 -3.305211,-5.14144 -1.195125,-0.06829 -3.580646,-3.397022 -3.397023,-5.87593 0.183623,-2.478908 2.937966,-3.856079 3.764268,-4.131514 0.826303,-0.275434 -2.754342,-3.488833 -4.957816,-2.295285 -2.387097,-2.478909 -1.468983,-5.508685 -1.468983,-5.508685 -0.610394,-1.22078 10.191067,-3.672456 9.915633,-6.610422 C 58.906555,22.882312 39.809781,6.1726342 39.809781,6.1726342 Z"
       id="path4"
       sodipodi:nodetypes="csssssssssssscccccccccccccsssssssssscssc"
       inkscape:label="Black" />
    <path
       style="display:inline;fill:#c6efff;fill-opacity:1;stroke:#000000;stroke-width:0;stroke-linecap:square;stroke-linejoin:round;stroke-dasharray:none;stroke-opacity:1"
       d="m 39.809781,6.1726342 c 0,0 -19.739455,15.2406948 -19.739455,18.1786608 0,2.937965 8.354839,8.263027 8.446651,7.16129 0.09181,-1.101737 2.387096,6.334988 0.275434,6.243176 -2.111663,-0.09181 -5.600496,0.459057 -5.692308,2.295285 -0.09181,1.836229 4.682382,0 4.131514,2.478909 -0.550869,2.478908 -0.674896,7.344913 -1.836229,7.344913 -2.295284,-10e-7 -4.498759,2.570719 -4.406947,5.600496 0.09181,3.029777 -7.987593,1.744417 -7.161291,-1.28536 0.826303,-3.029776 8.171216,-7.620347 8.171216,-11.935484 0,-4.315136 -5.404784,-4.64123 -6.51861,-4.131513 -5.416874,2.478908 -0.09181,5.23325 -0.09181,5.23325 0.94794,1.89585 -6.6104218,5.875931 -6.9776675,11.200993 -0.3672456,5.325062 9.6401985,8.44665 13.7717125,8.354839 -2.019851,1.560795 -5.692308,4.131513 -5.141439,4.682382 0.550868,0.550868 5.441212,2.65201 10.925558,-3.85608 -0.734491,2.387097 -2.203474,6.059554 -1.28536,6.334988 3.856079,-0.367246 6.151365,-5.692308 7.253102,-6.243176 0.826303,1.836228 0.826303,5.416874 2.478908,6.151365 2.478908,-0.459058 2.019851,-4.039703 2.754343,-4.223325 0.734491,-0.183623 2.099111,4.578379 4.315136,4.315136 1.756969,-0.446865 0.275434,-5.416873 1.468983,-5.416873 1.193548,0 2.387097,6.610422 6.334987,5.87593 2.387097,-0.183623 -1.744417,-7.436725 -0.918114,-6.885856 0.826303,0.550868 8.44665,7.80397 11.568238,5.416873 1.836228,-1.836228 -7.712158,-4.59057 -5.325062,-5.87593 2.387097,-1.28536 13.496278,-0.09181 13.58809,-8.813896 0.07444,-7.071472 -6.794045,-7.895782 -6.518611,-10.558313 0.275435,-2.662531 2.295286,-1.009925 2.203474,-2.937965 -0.09181,-1.928039 -1.560794,-2.478908 -3.305211,-2.295285 -1.744417,0.183623 -5.508685,1.744417 -5.23325,4.406948 0.275434,2.662531 8.722084,6.243176 7.987593,9.548387 -0.734492,3.305211 -6.059554,3.672456 -6.702233,2.846154 -0.64268,-0.826303 -0.09181,-4.957817 -3.305211,-5.14144 -1.195125,-0.06829 -3.580646,-3.397022 -3.397023,-5.87593 0.183623,-2.478908 2.937966,-3.856079 3.764268,-4.131514 0.826303,-0.275434 -2.754342,-3.488833 -4.957816,-2.295285 -2.387097,-2.478909 -1.468983,-5.508685 -1.468983,-5.508685 -0.610394,-1.22078 10.191067,-3.672456 9.915633,-6.610422 C 58.906555,22.882312 39.809781,6.1726342 39.809781,6.1726342 Z"
       id="path5"
       sodipodi:nodetypes="csssssssssssscccccccccccccsssssssssscssc"
       inkscape:label="Bluepath" />
  </g>
  <g
     inkscape:groupmode="layer"
     id="layer4"
     inkscape:label="Eyes"
     style="display:inline">
    <circle
       style="fill:#ffffff;fill-opacity:1;stroke:#000000;stroke-width:2.81046;stroke-linecap:square;stroke-linejoin:round;stroke-miterlimit:0;stroke-dasharray:none;stroke-opacity:1"
       id="path6"
       cx="28.516983"
       cy="55.620922"
       r="3.4080298" />
    <circle
       style="display:inline;fill:#ffffff;fill-opacity:1;stroke:#000000;stroke-width:2.81046;stroke-linecap:square;stroke-linejoin:round;stroke-miterlimit:0;stroke-dasharray:none;stroke-opacity:1"
       id="path6-3"
       cx="50.558453"
       cy="55.235947"
       r="3.4080298" />
  </g>
</svg>
